<svg width="14" height="14" viewBox="0 0 14 14" fill="none" xmlns="http://www.w3.org/2000/svg">
<path d="M13.4219 3.43077C13.2124 2.94583 12.9104 2.50638 12.5328 2.13702C12.1549 1.76656 11.7093 1.47216 11.2203 1.26984C10.7132 1.0592 10.1694 0.951384 9.62031 0.952648C8.85 0.952648 8.09844 1.16359 7.44531 1.56202C7.28906 1.65734 7.14062 1.76202 7 1.87609C6.85938 1.76202 6.71094 1.65734 6.55469 1.56202C5.90156 1.16359 5.15 0.952648 4.37969 0.952648C3.825 0.952648 3.2875 1.0589 2.77969 1.26984C2.28906 1.47296 1.84687 1.76515 1.46719 2.13702C1.08906 2.50596 0.786997 2.94552 0.578125 3.43077C0.360938 3.93546 0.25 4.4714 0.25 5.02296C0.25 5.54327 0.35625 6.08546 0.567188 6.63702C0.74375 7.09796 0.996875 7.57609 1.32031 8.0589C1.83281 8.82296 2.5375 9.61984 3.4125 10.4276C4.8625 11.7667 6.29844 12.6917 6.35938 12.7292L6.72969 12.9667C6.89375 13.0714 7.10469 13.0714 7.26875 12.9667L7.63906 12.7292C7.7 12.6901 9.13437 11.7667 10.5859 10.4276C11.4609 9.61984 12.1656 8.82296 12.6781 8.0589C13.0016 7.57609 13.2562 7.09796 13.4312 6.63702C13.6422 6.08546 13.7484 5.54327 13.7484 5.02296C13.75 4.4714 13.6391 3.93546 13.4219 3.43077Z" fill="#D4D4D4"/>
</svg>
