<svg width="16" height="16" viewBox="0 0 16 16" fill="none" xmlns="http://www.w3.org/2000/svg">
<path d="M14.5 2.5H1.5C1.22344 2.5 1 2.72344 1 3V13C1 13.2766 1.22344 13.5 1.5 13.5H14.5C14.7766 13.5 15 13.2766 15 13V3C15 2.72344 14.7766 2.5 14.5 2.5ZM13.2375 4.20156L8.30781 8.0375C8.18594 8.13281 8.01562 8.13281 7.89375 8.0375L2.9625 4.20156C2.94391 4.18722 2.93028 4.16741 2.92351 4.14493C2.91674 4.12245 2.91718 4.09841 2.92476 4.07618C2.93234 4.05396 2.94668 4.03466 2.96578 4.021C2.98488 4.00734 3.00777 4 3.03125 4H13.1687C13.1922 4 13.2151 4.00734 13.2342 4.021C13.2533 4.03466 13.2677 4.05396 13.2752 4.07618C13.2828 4.09841 13.2833 4.12245 13.2765 4.14493C13.2697 4.16741 13.2561 4.18722 13.2375 4.20156Z" fill="#D4D4D4"/>
</svg>
