<svg width="16" height="16" viewBox="0 0 16 16" fill="none" xmlns="http://www.w3.org/2000/svg">
<path d="M14.7894 7.89095L8.35342 1.4597C8.30708 1.41327 8.25204 1.37644 8.19144 1.3513C8.13085 1.32617 8.06589 1.31323 8.00029 1.31323C7.93469 1.31323 7.86974 1.32617 7.80914 1.3513C7.74855 1.37644 7.69351 1.41327 7.64717 1.4597L1.21123 7.89095C1.02373 8.07845 0.91748 8.33314 0.91748 8.59877C0.91748 9.15033 1.36592 9.59877 1.91748 9.59877H2.59561V14.1878C2.59561 14.4644 2.81904 14.6878 3.09561 14.6878H7.00029V11.1878H8.75029V14.6878H12.905C13.1815 14.6878 13.405 14.4644 13.405 14.1878V9.59877H14.0831C14.3487 9.59877 14.6034 9.49408 14.7909 9.30502C15.18 8.91439 15.18 8.28158 14.7894 7.89095Z" fill="#D4D4D4"/>
</svg>
