<svg width="27" height="27" viewBox="0 0 27 27" fill="none" xmlns="http://www.w3.org/2000/svg">
<path d="M24.3369 7.47702C23.9835 6.65868 23.4739 5.91711 22.8366 5.29382C22.1989 4.66867 21.447 4.17187 20.6218 3.83044C19.7661 3.47499 18.8483 3.29305 17.9218 3.29518C16.6219 3.29518 15.3536 3.65114 14.2515 4.3235C13.9878 4.48434 13.7373 4.66101 13.5 4.85349C13.2627 4.66101 13.0122 4.48434 12.7485 4.3235C11.6464 3.65114 10.3781 3.29518 9.07822 3.29518C8.14219 3.29518 7.23516 3.47448 6.37822 3.83044C5.55029 4.17321 4.8041 4.66628 4.16338 5.29382C3.52528 5.91641 3.01556 6.65815 2.66309 7.47702C2.29658 8.32868 2.10938 9.23308 2.10938 10.1638C2.10938 11.0419 2.28867 11.9568 2.64463 12.8876C2.94258 13.6654 3.36973 14.4722 3.91553 15.287C4.78037 16.5763 5.96953 17.9211 7.44609 19.2842C9.89297 21.5439 12.3161 23.1049 12.4189 23.1681L13.0438 23.5689C13.3207 23.7456 13.6767 23.7456 13.9535 23.5689L14.5784 23.1681C14.6813 23.1022 17.1018 21.5439 19.5513 19.2842C21.0278 17.9211 22.217 16.5763 23.0818 15.287C23.6276 14.4722 24.0574 13.6654 24.3527 12.8876C24.7087 11.9568 24.888 11.0419 24.888 10.1638C24.8906 9.23308 24.7034 8.32868 24.3369 7.47702ZM13.5 21.4833C13.5 21.4833 4.11328 15.4689 4.11328 10.1638C4.11328 7.47702 6.33603 5.29909 9.07822 5.29909C11.0057 5.29909 12.6773 6.37487 13.5 7.94636C14.3227 6.37487 15.9943 5.29909 17.9218 5.29909C20.664 5.29909 22.8867 7.47702 22.8867 10.1638C22.8867 15.4689 13.5 21.4833 13.5 21.4833Z" fill="#2C2C2C"/>
</svg>
