<svg width="20" height="20" viewBox="0 0 20 20" fill="none" xmlns="http://www.w3.org/2000/svg">
<path d="M1.19764 3.1889C1.32946 3.06311 1.48606 3 1.66637 3H12.3332C12.5137 3 12.6701 3.06311 12.8019 3.1889C12.9338 3.31486 12.9998 3.46409 12.9998 3.63641V5.54552H14.6666C14.8541 5.54552 15.0574 5.5886 15.2761 5.67476C15.4949 5.76106 15.6702 5.86693 15.8021 5.9929L17.8646 7.96166C17.9549 8.04782 18.0329 8.14718 18.099 8.25994C18.165 8.37243 18.2136 8.47378 18.2449 8.5631C18.2761 8.65268 18.2988 8.77516 18.3125 8.93108C18.3263 9.08693 18.3351 9.20126 18.3386 9.27422C18.3419 9.34708 18.3419 9.47308 18.3386 9.65209C18.3351 9.83116 18.3333 9.94706 18.3333 10.0002V13.1819C18.5138 13.1819 18.6701 13.2448 18.8021 13.3709C18.934 13.4966 19 13.6459 19 13.8183C19 13.9176 18.9862 14.0055 18.9584 14.0816C18.9306 14.1579 18.8838 14.2192 18.8176 14.2657C18.7517 14.3121 18.6944 14.3501 18.6458 14.3801C18.5971 14.4098 18.5155 14.4297 18.401 14.4396C18.2864 14.4496 18.2083 14.4563 18.1666 14.4597C18.1249 14.4628 18.0365 14.4628 17.9011 14.4597C17.7655 14.4563 17.6874 14.4547 17.6666 14.4547H16.9999C16.9999 15.1571 16.7395 15.7571 16.2188 16.2543C15.6979 16.7514 15.0694 17 14.3333 17C13.5972 17 12.9687 16.7514 12.4479 16.2543C11.927 15.7571 11.6667 15.1571 11.6667 14.4547H7.66656C7.66656 15.1571 7.40609 15.7571 6.88534 16.2543C6.36466 16.7514 5.73612 17 4.99996 17C4.26365 17 3.63552 16.7514 3.11458 16.2543C2.59368 15.7571 2.33336 15.1571 2.33336 14.4547C2.31263 14.4547 2.23444 14.4563 2.09912 14.4597C1.96365 14.4628 1.8751 14.4628 1.83343 14.4597C1.79169 14.4563 1.71343 14.4496 1.59894 14.4396C1.48442 14.4297 1.40291 14.4099 1.3542 14.3801C1.30549 14.3502 1.24835 14.3121 1.18239 14.2657C1.11635 14.2192 1.0694 14.1579 1.0417 14.0816C1.01361 14.0055 1 13.9175 1 13.8183V3.63652C0.999853 3.46416 1.06578 3.31511 1.19764 3.1889ZM13.396 15.3495C13.6597 15.6013 13.9723 15.7275 14.3334 15.7275C14.6945 15.7275 15.0071 15.6014 15.271 15.3495C15.5349 15.0978 15.6668 14.7994 15.6668 14.4547C15.6668 14.1101 15.5347 13.8115 15.271 13.5597C15.0071 13.3079 14.6946 13.1819 14.3334 13.1819C13.9723 13.1819 13.6598 13.3078 13.396 13.5597C13.132 13.8115 13 14.1101 13 14.4547C13 14.7994 13.132 15.0978 13.396 15.3495ZM13 9.36369H17.0001V9.06551C17.0001 8.97931 16.9689 8.90639 16.9064 8.84669L14.8751 6.90785C14.8127 6.84816 14.7361 6.81842 14.6459 6.81842H13V9.36369ZM4.06254 15.3495C4.32633 15.6013 4.6389 15.7275 4.99996 15.7275C5.36116 15.7275 5.67384 15.6014 5.93763 15.3495C6.20146 15.0978 6.33346 14.7994 6.33346 14.4547C6.33346 14.1101 6.20149 13.8115 5.93763 13.5597C5.67384 13.3079 5.36116 13.1819 4.99996 13.1819C4.6389 13.1819 4.32633 13.3078 4.06254 13.5597C3.79872 13.8116 3.6666 14.1101 3.6666 14.4547C3.6666 14.7994 3.79846 15.0978 4.06254 15.3495Z" fill="#D4D4D4"/>
</svg>
