<svg width="27" height="27" viewBox="0 0 27 27" fill="none" xmlns="http://www.w3.org/2000/svg">
<path d="M21.5156 20.2501H20.8828V11.2853C20.8828 7.56487 18.1327 4.48782 14.5547 3.97629V2.95325C14.5547 2.37053 14.0827 1.89856 13.5 1.89856C12.9173 1.89856 12.4453 2.37053 12.4453 2.95325V3.97629C8.86729 4.48782 6.11719 7.56487 6.11719 11.2853V20.2501H5.48438C5.01768 20.2501 4.64062 20.6272 4.64062 21.0939V21.9376C4.64062 22.0536 4.73555 22.1486 4.85156 22.1486H10.5469C10.5469 23.7781 11.8705 25.1017 13.5 25.1017C15.1295 25.1017 16.4531 23.7781 16.4531 22.1486H22.1484C22.2645 22.1486 22.3594 22.0536 22.3594 21.9376V21.0939C22.3594 20.6272 21.9823 20.2501 21.5156 20.2501ZM13.5 23.4142C12.8013 23.4142 12.2344 22.8473 12.2344 22.1486H14.7656C14.7656 22.8473 14.1987 23.4142 13.5 23.4142Z" fill="#83B373"/>
</svg>
