<svg width="27" height="27" viewBox="0 0 27 27" fill="none" xmlns="http://www.w3.org/2000/svg">
<path d="M22.5002 23.9999H4.50024C4.10024 19.5999 8.66691 16.1666 11.0002 14.9999C9.33357 13.8332 6.40024 10.6999 8.00024 7.49989C10.0002 3.49989 13.5002 3.49989 16.0002 4.49989C18.5002 5.49989 19.0002 7.99989 19.0002 9.99989C19.0002 11.5999 17.0002 13.9999 16.0002 14.9999C21.0002 16.9999 22.0002 21.3332 22.5002 23.9999Z" fill="#83B373"/>
<path d="M22.6358 20.134C22.1384 18.9558 21.4166 17.8857 20.5106 16.9831C19.6074 16.0779 18.5374 15.3563 17.3597 14.8579C17.3492 14.8526 17.3386 14.85 17.3281 14.8447C18.9708 13.6582 20.0386 11.7255 20.0386 9.54492C20.0386 5.93262 17.1119 3.00586 13.4996 3.00586C9.88727 3.00586 6.96052 5.93262 6.96052 9.54492C6.96052 11.7255 8.02839 13.6582 9.67106 14.8474C9.66052 14.8526 9.64997 14.8553 9.63942 14.8605C8.45817 15.3589 7.39821 16.0734 6.48854 16.9857C5.58338 17.889 4.8617 18.959 4.36335 20.1366C3.87377 21.2895 3.60973 22.5256 3.58552 23.7779C3.58481 23.8061 3.58975 23.8341 3.60003 23.8603C3.61032 23.8865 3.62574 23.9104 3.6454 23.9305C3.66506 23.9507 3.68855 23.9667 3.71449 23.9776C3.74044 23.9885 3.7683 23.9942 3.79645 23.9941H5.37848C5.4945 23.9941 5.58678 23.9019 5.58942 23.7885C5.64216 21.7529 6.45954 19.8466 7.90446 18.4017C9.39948 16.9066 11.3849 16.084 13.4996 16.084C15.6142 16.084 17.5997 16.9066 19.0947 18.4017C20.5396 19.8466 21.357 21.7529 21.4097 23.7885C21.4124 23.9045 21.5047 23.9941 21.6207 23.9941H23.2027C23.2309 23.9942 23.2587 23.9885 23.2847 23.9776C23.3106 23.9667 23.3341 23.9507 23.3538 23.9305C23.3734 23.9104 23.3888 23.8865 23.3991 23.8603C23.4094 23.8341 23.4143 23.8061 23.4136 23.7779C23.3873 22.5176 23.1262 21.2915 22.6358 20.134ZM13.4996 14.0801C12.2893 14.0801 11.1503 13.6081 10.2933 12.7512C9.43639 11.8942 8.96442 10.7552 8.96442 9.54492C8.96442 8.33467 9.43639 7.19561 10.2933 6.33867C11.1503 5.48174 12.2893 5.00977 13.4996 5.00977C14.7098 5.00977 15.8489 5.48174 16.7058 6.33867C17.5628 7.19561 18.0347 8.33467 18.0347 9.54492C18.0347 10.7552 17.5628 11.8942 16.7058 12.7512C15.8489 13.6081 14.7098 14.0801 13.4996 14.0801Z" fill="#83B373"/>
</svg>
