<svg width="12" height="12" viewBox="0 0 12 12" fill="none" xmlns="http://www.w3.org/2000/svg">
<path d="M8.71002 6.37866L7.5083 5.05303C7.43346 4.97051 7.36465 4.80046 7.36119 4.68898L7.31698 3.3135V3.27365C7.31698 3.0617 7.1445 2.88922 6.93256 2.88922H5.75621H5.28875C5.09935 2.88922 4.88805 3.02339 4.80745 3.19471L3.22387 6.55844C3.18004 6.65173 3.17568 6.75591 3.21156 6.85215C3.24744 6.94825 3.3192 7.02411 3.41339 7.06563L3.64674 7.16853C3.69645 7.19044 3.74951 7.20159 3.80448 7.20159C3.9553 7.20159 4.09575 7.11586 4.16251 6.98323L4.90432 5.50742V6.9908C4.90125 6.99938 4.89676 7.0072 4.89394 7.01591L3.64033 10.9419C3.58817 11.1054 3.60406 11.2775 3.68518 11.4264C3.76629 11.5753 3.90212 11.682 4.06794 11.7267L4.15174 11.7494C4.20659 11.7642 4.26348 11.7718 4.32063 11.7718C4.60908 11.7718 4.87113 11.582 4.95801 11.3101L6.12936 7.64163L6.5448 8.65921C6.64616 8.90742 6.75559 9.34208 6.78378 9.60861L6.98253 11.4822C7.01444 11.7822 7.25163 11.9999 7.54661 11.9999C7.59492 11.9999 7.644 11.994 7.69231 11.9823L7.77676 11.9618C8.113 11.8804 8.35058 11.535 8.30637 11.1919L8.01203 8.90742C7.97461 8.61718 7.84941 8.16265 7.73293 7.8942L7.33543 6.97875C7.33031 6.96683 7.32301 6.95607 7.31711 6.94454V6.3242L8.03343 7.07204C8.10467 7.14649 8.20001 7.18749 8.30175 7.18749C8.40465 7.18749 8.50076 7.14572 8.57226 7.06986L8.70476 6.92916C8.84649 6.77859 8.84892 6.53179 8.71002 6.37866Z" fill="#8C8C8C"/>
<path d="M6.21758 2.56348C6.92442 2.56348 7.49939 1.98851 7.49939 1.28168C7.49939 0.574974 6.92442 0 6.21758 0C5.51088 0 4.93604 0.574974 4.93604 1.28168C4.93591 1.98851 5.51088 2.56348 6.21758 2.56348Z" fill="#8C8C8C"/>
</svg>
