<svg width="14" height="16" viewBox="0 0 14 16" fill="none" xmlns="http://www.w3.org/2000/svg">
<path d="M13.8859 7.74928L11.2192 5.41593C11.1212 5.33059 10.9812 5.30993 10.8619 5.36328C10.7425 5.41728 10.6665 5.53593 10.6665 5.66662V6.66662H6.99985C6.81585 6.66662 6.6665 6.81596 6.6665 6.99996V8.99996C6.6665 9.18396 6.81585 9.33331 6.99985 9.33331H10.6665V10.3333C10.6665 10.464 10.7432 10.5827 10.8619 10.6367C10.9059 10.6567 10.9532 10.6667 10.9999 10.6667C11.0792 10.6667 11.1572 10.6387 11.2192 10.584L13.8859 8.25065C13.9585 8.18731 13.9999 8.096 13.9999 8C13.9999 7.904 13.9585 7.81259 13.8859 7.74928Z" fill="white"/>
<path d="M9.66666 10H7C6.44866 10 6 9.55134 6 9V7C6 6.44866 6.44866 6 7 6H9.66666C9.85066 6 10 5.85066 10 5.66666V1C10 0.448656 9.55134 0 9 0H1C0.448656 0 0 0.448656 0 1V15C0 15.5513 0.448656 16 1 16H9C9.55134 16 10 15.5513 10 15V10.3333C10 10.1493 9.85066 10 9.66666 10Z" fill="white"/>
</svg>
