<svg width="16" height="16" viewBox="0 0 16 16" fill="none" xmlns="http://www.w3.org/2000/svg">
<path d="M8.00758 6.10259C7.54039 6.10259 7.10289 6.28384 6.77164 6.61509C6.44195 6.94634 6.25914 7.38384 6.25914 7.85103C6.25914 8.31821 6.44195 8.75571 6.77164 9.08696C7.10289 9.41665 7.54039 9.59946 8.00758 9.59946C8.47476 9.59946 8.91226 9.41665 9.24351 9.08696C9.5732 8.75571 9.75601 8.31821 9.75601 7.85103C9.75601 7.38384 9.5732 6.94634 9.24351 6.61509C9.08172 6.45205 8.88915 6.32279 8.67697 6.23481C8.4648 6.14683 8.23726 6.10189 8.00758 6.10259ZM14.4498 9.78228L13.4279 8.90884C13.4763 8.61196 13.5013 8.30884 13.5013 8.00728C13.5013 7.70571 13.4763 7.40103 13.4279 7.10571L14.4498 6.23228C14.527 6.16619 14.5822 6.07818 14.6082 5.97993C14.6341 5.88168 14.6296 5.77786 14.5951 5.68228L14.581 5.64165C14.2998 4.85523 13.8784 4.12627 13.3373 3.49009L13.3091 3.45728C13.2434 3.38001 13.1559 3.32447 13.0579 3.29798C12.96 3.27148 12.8564 3.27526 12.7607 3.30884L11.492 3.7604C11.0232 3.37603 10.5013 3.0729 9.9357 2.86196L9.69039 1.5354C9.67188 1.43547 9.6234 1.34353 9.5514 1.2718C9.47939 1.20008 9.38727 1.15196 9.28726 1.13384L9.24508 1.12603C8.43258 0.97915 7.57633 0.97915 6.76383 1.12603L6.72164 1.13384C6.62163 1.15196 6.52951 1.20008 6.4575 1.2718C6.3855 1.34353 6.33702 1.43547 6.31851 1.5354L6.07164 2.86821C5.51137 3.08083 4.98944 3.38322 4.52633 3.76353L3.2482 3.30884C3.15252 3.275 3.04881 3.27107 2.95085 3.29759C2.85289 3.3241 2.76531 3.3798 2.69976 3.45728L2.67164 3.49009C2.13147 4.12695 1.71019 4.85573 1.42789 5.64165L1.41383 5.68228C1.34351 5.87759 1.40133 6.09634 1.55914 6.23228L2.59351 7.11509C2.54508 7.40884 2.52164 7.70884 2.52164 8.00571C2.52164 8.30571 2.54508 8.60571 2.59351 8.89634L1.56226 9.77915C1.48507 9.84524 1.42982 9.93325 1.40386 10.0315C1.37791 10.1297 1.38247 10.2336 1.41695 10.3292L1.43101 10.3698C1.71383 11.1557 2.13101 11.8823 2.67476 12.5213L2.70289 12.5542C2.7686 12.6314 2.85618 12.687 2.95408 12.7135C3.05198 12.74 3.15562 12.7362 3.25133 12.7026L4.52945 12.2479C4.99508 12.6307 5.51383 12.9338 6.07476 13.1432L6.32164 14.476C6.34015 14.576 6.38862 14.6679 6.46063 14.7396C6.53263 14.8114 6.62476 14.8595 6.72476 14.8776L6.76695 14.8854C7.58744 15.0331 8.42771 15.0331 9.2482 14.8854L9.29039 14.8776C9.39039 14.8595 9.48252 14.8114 9.55452 14.7396C9.62653 14.6679 9.675 14.576 9.69351 14.476L9.93882 13.1495C10.5044 12.937 11.0263 12.6354 11.4951 12.251L12.7638 12.7026C12.8595 12.7364 12.9632 12.7404 13.0612 12.7138C13.1591 12.6873 13.2467 12.6316 13.3123 12.5542L13.3404 12.5213C13.8841 11.8792 14.3013 11.1557 14.5841 10.3698L14.5982 10.3292C14.6654 10.1354 14.6076 9.91821 14.4498 9.78228ZM8.00758 10.5979C6.49039 10.5979 5.2607 9.36821 5.2607 7.85103C5.2607 6.33384 6.49039 5.10415 8.00758 5.10415C9.52476 5.10415 10.7544 6.33384 10.7544 7.85103C10.7544 9.36821 9.52476 10.5979 8.00758 10.5979Z" fill="#D4D4D4"/>
</svg>
