<svg width="116" height="23" viewBox="0 0 116 23" fill="none" xmlns="http://www.w3.org/2000/svg">
<path d="M0.9 18.88L12.93 4.33H1.23V0.699999H17.7V3.82L6.06 18.37H17.79V22H0.9V18.88ZM21.0286 22V0.699999H25.1686V22H21.0286ZM44.4026 19.6C42.7026 21.3 40.7226 22.15 38.4626 22.15C37.0626 22.15 35.7426 21.87 34.5026 21.31C33.2826 20.75 32.2126 19.98 31.2926 19C30.3926 18.02 29.6726 16.87 29.1326 15.55C28.6126 14.21 28.3526 12.77 28.3526 11.23C28.3526 9.77 28.6126 8.4 29.1326 7.12C29.6726 5.82 30.4026 4.69 31.3226 3.73C32.2626 2.75 33.3626 1.98 34.6226 1.42C35.8826 0.839999 37.2526 0.549999 38.7326 0.549999C40.7326 0.549999 42.4426 0.969999 43.8626 1.81C45.3026 2.65 46.3826 3.78 47.1026 5.2L44.0126 7.48C43.4726 6.42 42.7126 5.61 41.7326 5.05C40.7726 4.49 39.7226 4.21 38.5826 4.21C37.6826 4.21 36.8526 4.4 36.0926 4.78C35.3526 5.16 34.7126 5.68 34.1726 6.34C33.6526 7 33.2426 7.76 32.9426 8.62C32.6626 9.48 32.5226 10.39 32.5226 11.35C32.5226 12.35 32.6826 13.29 33.0026 14.17C33.3226 15.03 33.7626 15.78 34.3226 16.42C34.8826 17.06 35.5426 17.57 36.3026 17.95C37.0826 18.31 37.9226 18.49 38.8226 18.49C40.8826 18.49 42.7426 17.52 44.4026 15.58V14.08H40.1126V11.05H47.8226V22H44.4026V19.6Z" fill="#83B373"/>
<path d="M71.2109 22V3.58L62.8109 17.95H61.8509L53.4509 3.58V22H51.9209V0.699999H53.4509L62.3309 15.94L71.2109 0.699999H72.7409V22H71.2109ZM86.8673 20.74C88.3073 20.74 89.4973 20.47 90.4373 19.93C91.3973 19.39 92.1473 18.68 92.6873 17.8C93.2473 16.92 93.6373 15.92 93.8573 14.8C94.0973 13.68 94.2173 12.55 94.2173 11.41V0.699999H95.7473V11.41C95.7473 12.83 95.5873 14.19 95.2673 15.49C94.9673 16.79 94.4673 17.94 93.7673 18.94C93.0673 19.92 92.1573 20.7 91.0373 21.28C89.9173 21.86 88.5373 22.15 86.8973 22.15C85.1973 22.15 83.7773 21.85 82.6373 21.25C81.4973 20.63 80.5773 19.82 79.8773 18.82C79.1973 17.8 78.7073 16.65 78.4073 15.37C78.1273 14.09 77.9873 12.77 77.9873 11.41V0.699999H79.5173V11.41C79.5173 12.59 79.6273 13.74 79.8473 14.86C80.0873 15.98 80.4873 16.98 81.0473 17.86C81.6273 18.72 82.3873 19.42 83.3273 19.96C84.2673 20.48 85.4473 20.74 86.8673 20.74ZM113.383 4.24C112.003 2.7 110.053 1.93 107.533 1.93C105.453 1.93 103.933 2.33 102.973 3.13C102.033 3.91 101.563 4.97 101.563 6.31C101.563 6.99 101.683 7.56 101.923 8.02C102.163 8.46 102.533 8.84 103.033 9.16C103.553 9.48 104.203 9.75 104.983 9.97C105.763 10.19 106.703 10.42 107.803 10.66C108.943 10.9 109.973 11.17 110.893 11.47C111.833 11.75 112.623 12.11 113.263 12.55C113.923 12.99 114.423 13.53 114.763 14.17C115.123 14.81 115.303 15.6 115.303 16.54C115.303 17.48 115.113 18.3 114.733 19C114.373 19.7 113.853 20.29 113.173 20.77C112.513 21.23 111.713 21.58 110.773 21.82C109.853 22.06 108.823 22.18 107.683 22.18C104.363 22.18 101.553 21.12 99.2531 19L100.063 17.77C100.963 18.71 102.063 19.46 103.363 20.02C104.663 20.56 106.123 20.83 107.743 20.83C109.603 20.83 111.053 20.49 112.093 19.81C113.153 19.13 113.683 18.1 113.683 16.72C113.683 16.02 113.543 15.43 113.263 14.95C112.983 14.45 112.563 14.02 112.003 13.66C111.463 13.3 110.773 12.99 109.933 12.73C109.093 12.47 108.113 12.22 106.993 11.98C105.853 11.74 104.843 11.49 103.963 11.23C103.103 10.95 102.373 10.61 101.773 10.21C101.193 9.79 100.753 9.29 100.453 8.71C100.153 8.13 100.003 7.4 100.003 6.52C100.003 5.56 100.183 4.71 100.543 3.97C100.923 3.23 101.443 2.61 102.103 2.11C102.763 1.59 103.553 1.2 104.473 0.939999C105.393 0.679999 106.413 0.549999 107.533 0.549999C108.913 0.549999 110.143 0.759999 111.223 1.18C112.303 1.58 113.283 2.2 114.163 3.04L113.383 4.24Z" fill="#2C2C2C"/>
</svg>