<svg width="27" height="27" viewBox="0 0 27 27" fill="none" xmlns="http://www.w3.org/2000/svg">
<path d="M24 9.49999C21.6 2.29999 16 4.16666 13.5 5.99999C6.7 1.59996 3.66667 6.49998 3 9.49999C3.4 15.1 10.1667 20.5 13.5 22.5C23.1 15.7 24.5 11 24 9.49999Z" fill="#83B373" stroke="#83B373"/>
<path d="M24.3369 7.47696C23.9835 6.65862 23.4739 5.91705 22.8366 5.29376C22.1989 4.66861 21.447 4.17181 20.6218 3.83038C19.7661 3.47493 18.8483 3.29299 17.9218 3.29512C16.6219 3.29512 15.3536 3.65108 14.2515 4.32344C13.9878 4.48428 13.7373 4.66094 13.5 4.85342C13.2627 4.66094 13.0122 4.48428 12.7485 4.32344C11.6464 3.65108 10.3781 3.29512 9.07822 3.29512C8.14219 3.29512 7.23516 3.47442 6.37822 3.83038C5.55029 4.17315 4.8041 4.66622 4.16338 5.29376C3.52528 5.91634 3.01556 6.65809 2.66309 7.47696C2.29658 8.32862 2.10938 9.23301 2.10938 10.1638C2.10938 11.0418 2.28867 11.9567 2.64463 12.8875C2.94258 13.6653 3.36973 14.4722 3.91553 15.2869C4.78037 16.5763 5.96953 17.921 7.44609 19.2842C9.89297 21.5439 12.3161 23.1048 12.4189 23.1681L13.0438 23.5689C13.3207 23.7455 13.6767 23.7455 13.9535 23.5689L14.5784 23.1681C14.6813 23.1022 17.1018 21.5439 19.5513 19.2842C21.0278 17.921 22.217 16.5763 23.0818 15.2869C23.6276 14.4722 24.0574 13.6653 24.3527 12.8875C24.7087 11.9567 24.888 11.0418 24.888 10.1638C24.8906 9.23301 24.7034 8.32862 24.3369 7.47696ZM13.5 21.4832C13.5 21.4832 4.11328 15.4689 4.11328 10.1638C4.11328 7.47696 6.33603 5.29903 9.07822 5.29903C11.0057 5.29903 12.6773 6.37481 13.5 7.9463C14.3227 6.37481 15.9943 5.29903 17.9218 5.29903C20.664 5.29903 22.8867 7.47696 22.8867 10.1638C22.8867 15.4689 13.5 21.4832 13.5 21.4832Z" fill="#83B373"/>
</svg>
