<svg width="20" height="20" viewBox="0 0 20 20" fill="none" xmlns="http://www.w3.org/2000/svg">
<path d="M16.291 9.16428C15.9118 8.31088 15.3606 7.5449 14.6719 6.91428L14.1035 6.3928C14.0842 6.37558 14.061 6.36336 14.0359 6.35721C14.0107 6.35106 13.9845 6.35117 13.9594 6.35754C13.9344 6.3639 13.9112 6.37632 13.8921 6.39371C13.8729 6.41109 13.8584 6.43291 13.8496 6.45725L13.5957 7.18577C13.4375 7.6428 13.1465 8.1096 12.7344 8.56858C12.707 8.59788 12.6758 8.60569 12.6543 8.60764C12.6328 8.6096 12.5996 8.60569 12.5703 8.57835C12.543 8.55491 12.5293 8.51975 12.5312 8.4846C12.6035 7.30881 12.252 5.98264 11.4824 4.53928C10.8457 3.34006 9.96094 2.40452 8.85547 1.75217L8.04883 1.27756C7.94336 1.21506 7.80859 1.2971 7.81445 1.42014L7.85742 2.35764C7.88672 2.99827 7.8125 3.56467 7.63672 4.03538C7.42188 4.61155 7.11328 5.14671 6.71875 5.62717C6.44419 5.96109 6.13299 6.26311 5.79102 6.52757C4.96739 7.1607 4.29768 7.97197 3.83203 8.90061C3.36753 9.83736 3.12557 10.8687 3.125 11.9143C3.125 12.8362 3.30664 13.7287 3.66602 14.5705C4.01302 15.381 4.51379 16.1166 5.14063 16.7365C5.77344 17.3615 6.50781 17.8537 7.32617 18.1955C8.17383 18.551 9.07227 18.7307 10 18.7307C10.9277 18.7307 11.8262 18.551 12.6738 18.1975C13.4902 17.8577 14.2325 17.3621 14.8594 16.7385C15.4922 16.1135 15.9883 15.383 16.334 14.5725C16.6928 13.733 16.8769 12.8292 16.875 11.9162C16.875 10.9631 16.6797 10.0373 16.291 9.16428Z" fill="#D4D4D4"/>
</svg>
