<svg width="27" height="27" viewBox="0 0 27 27" fill="none" xmlns="http://www.w3.org/2000/svg">
<path d="M21.5156 20.25H20.8828V11.2852C20.8828 7.56475 18.1327 4.49033 14.5547 3.97881V2.95312C14.5547 2.37041 14.0827 1.89844 13.5 1.89844C12.9173 1.89844 12.4453 2.37041 12.4453 2.95312V3.97881C8.86729 4.49033 6.11719 7.56475 6.11719 11.2852V20.25H5.48438C5.01768 20.25 4.64062 20.6271 4.64062 21.0938V21.9375C4.64062 22.0535 4.73555 22.1484 4.85156 22.1484H10.5469C10.5469 23.7779 11.8705 25.1016 13.5 25.1016C15.1295 25.1016 16.4531 23.7779 16.4531 22.1484H22.1484C22.2645 22.1484 22.3594 22.0535 22.3594 21.9375V21.0938C22.3594 20.6271 21.9823 20.25 21.5156 20.25ZM13.5 23.4141C12.8013 23.4141 12.2344 22.8472 12.2344 22.1484H14.7656C14.7656 22.8472 14.1987 23.4141 13.5 23.4141ZM8.01562 20.25V11.2852C8.01562 9.81914 8.58516 8.44277 9.62139 7.40654C10.6576 6.37031 12.034 5.80078 13.5 5.80078C14.966 5.80078 16.3424 6.37031 17.3786 7.40654C18.4148 8.44277 18.9844 9.81914 18.9844 11.2852V20.25H8.01562Z" fill="#2C2C2C"/>
</svg>
