<svg width="20" height="20" viewBox="0 0 20 20" fill="none" xmlns="http://www.w3.org/2000/svg">
<path d="M14.4737 4.47359H13.9474V4.73675C13.9474 5.02754 13.7118 5.26307 13.4211 5.26307H12.6684C12.7859 6.1078 13.1812 6.91044 13.7931 7.52261C13.9987 7.72787 13.9987 8.06109 13.7931 8.26669C13.5878 8.47228 13.2546 8.47228 13.049 8.26669C12.2405 7.45846 11.7306 6.38577 11.6079 5.26307H6.8421C5.82632 5.26307 5 4.43675 5 3.42096C5 2.40517 5.82632 1.57886 6.8421 1.57886H13.4211C13.7118 1.57886 13.9474 1.81438 13.9474 2.10517V2.36833H14.4737C14.7645 2.36833 15 2.60386 15 2.89465V3.94728C15 4.23807 14.7645 4.47359 14.4737 4.47359Z" fill="#D4D4D4"/>
<path d="M11.1974 6.31567C11.262 6.31567 11.3157 6.36748 11.3158 6.43212V6.43344C11.3158 7.88508 11.926 9.28442 12.9898 10.2723C14.2674 11.4584 15 13.1387 15 14.8821V16.842C15 17.714 14.2931 18.4209 13.4211 18.4209H7.10526C6.23312 18.4209 5.52632 17.7138 5.52632 16.8417C5.52632 11.6733 5.39865 12.9406 6.7072 6.41107C6.71829 6.35574 6.76694 6.31567 6.82335 6.31567H11.1974Z" fill="#D4D4D4"/>
</svg>
